<svg xmlns="http://www.w3.org/2000/svg" viewBox="0 17.329999923706055 252.5399932861328 41.38999938964844" data-asc="1.1552734375"><g fill="#b338f0"><g fill="#b338f0" transform="translate(0, 0)"><path d="M25.88 40.43Q25.88 37.30 23.95 35.60Q22.02 33.89 18.85 33.89Q16.16 33.89 14.23 35.74Q12.30 37.60 12.30 40.19Q12.30 41.65 12.70 42.81Q13.09 43.97 13.76 44.74Q14.43 45.51 15.36 46.01Q16.28 46.51 17.30 46.73Q18.31 46.95 19.46 46.95Q22.24 46.95 24.54 45.58L24.54 47.34Q22.17 48.58 19.43 48.58Q17.68 48.58 16.13 48.11Q14.58 47.63 13.31 46.67Q12.04 45.70 11.29 44.03Q10.55 42.36 10.55 40.19Q10.55 36.82 12.92 34.47Q15.28 32.13 18.85 32.13Q22.78 32.13 25.21 34.34Q27.64 36.55 27.64 40.43L27.64 57.76L25.88 57.76L25.88 40.43M31.15 40.43L31.15 57.76L29.39 57.76L29.39 40.43Q29.39 35.82 26.44 33.09Q23.49 30.37 18.85 30.37Q14.55 30.37 11.67 33.23Q8.79 36.08 8.79 40.19Q8.79 42.68 9.66 44.65Q10.52 46.63 12.01 47.83Q13.50 49.02 15.34 49.65Q17.19 50.27 19.24 50.27Q22.02 50.27 24.54 48.97L24.54 50.83Q21.90 51.93 19.21 51.93Q16.80 51.93 14.62 51.18Q12.45 50.44 10.74 49.01Q9.03 47.58 8.03 45.30Q7.03 43.02 7.03 40.19Q7.03 35.38 10.44 31.99Q13.84 28.61 18.85 28.61Q22.36 28.61 25.15 30.04Q27.93 31.47 29.54 34.18Q31.15 36.89 31.15 40.43M34.67 40.43L34.67 57.76L32.91 57.76L32.91 40.43Q32.91 36.40 31.07 33.29Q29.22 30.18 26.03 28.52Q22.83 26.86 18.85 26.86Q15.06 26.86 11.94 28.65Q8.81 30.44 7.04 33.50Q5.27 36.55 5.27 40.19Q5.27 43.31 6.42 45.89Q7.57 48.46 9.51 50.12Q11.45 51.78 13.93 52.70Q16.41 53.61 19.12 53.61Q21.88 53.61 24.54 52.47L24.54 54.25Q21.75 55.30 19.07 55.30Q14.84 55.30 11.30 53.39Q7.76 51.49 5.64 48.00Q3.52 44.51 3.52 40.19Q3.52 37.11 4.70 34.33Q5.88 31.54 7.91 29.52Q9.94 27.49 12.79 26.29Q15.65 25.10 18.85 25.10Q23.32 25.10 26.92 27.00Q30.52 28.91 32.59 32.42Q34.67 35.94 34.67 40.43M38.18 40.43L38.18 57.76L36.43 57.76L36.43 40.43Q36.43 35.45 34.11 31.53Q31.79 27.61 27.78 25.48Q23.78 23.34 18.85 23.34Q14.11 23.34 10.18 25.61Q6.25 27.88 4.00 31.75Q1.76 35.62 1.76 40.19Q1.76 43.19 2.72 45.89Q3.69 48.58 5.36 50.60Q7.03 52.61 9.22 54.08Q11.40 55.54 13.93 56.30Q16.46 57.06 19.07 57.06Q21.95 57.06 24.54 55.96L24.54 57.76Q21.83 58.72 18.97 58.72Q16.02 58.72 13.22 57.89Q10.42 57.06 8.04 55.43Q5.66 53.81 3.86 51.60Q2.05 49.39 1.03 46.44Q0 43.48 0 40.19Q0 36.40 1.43 32.97Q2.86 29.54 5.33 27.04Q7.81 24.54 11.34 23.06Q14.87 21.58 18.85 21.58Q22.90 21.58 26.46 22.95Q30.03 24.32 32.62 26.75Q35.21 29.17 36.69 32.71Q38.18 36.25 38.18 40.43ZM79.47 22.61L77.51 22.61L67.72 40.33L77.37 57.76L79.32 57.76L69.68 40.33L79.47 22.61M75.54 22.61L73.58 22.61L63.79 40.33L73.44 57.76L75.39 57.76L65.75 40.33L75.54 22.61M71.61 22.61L69.65 22.61L59.86 40.33L69.51 57.76L71.46 57.76L61.82 40.33L71.61 22.61M67.68 22.61L65.72 22.61L55.91 40.33L65.58 57.76L67.53 57.76L57.86 40.33L67.68 22.61M53.08 22.61L54.83 22.61L54.83 57.76L53.08 57.76L53.08 22.61M49.56 22.61L51.32 22.61L51.32 57.76L49.56 57.76L49.56 22.61M46.04 22.61L47.80 22.61L47.80 57.76L46.04 57.76L46.04 22.61M42.53 22.61L44.29 22.61L44.29 57.76L42.53 57.76L42.53 22.61ZM98.78 41.04L96.00 41.04Q90.87 41.04 88.11 38.95Q85.35 36.87 85.35 33.20Q85.35 29.79 88.60 27.50Q91.85 25.22 97.71 25.22Q101.61 25.22 104.99 26.29Q108.37 27.37 110.62 29.32L109.25 30.42Q107.25 28.78 104.22 27.88Q101.20 26.98 97.71 26.98Q92.55 26.98 89.83 28.74Q87.11 30.49 87.11 33.20Q87.11 36.13 89.34 37.71Q91.58 39.28 96.00 39.28L98.68 39.28Q103.88 39.28 106.65 41.37Q109.42 43.46 109.42 47.12Q109.42 50.54 106.18 52.82Q102.93 55.10 97.07 55.10Q93.16 55.10 89.78 54.03Q86.40 52.95 84.16 51.00L85.52 49.90Q87.52 51.54 90.55 52.44Q93.58 53.34 97.07 53.34Q102.22 53.34 104.94 51.59Q107.67 49.83 107.67 47.12Q107.67 44.19 105.43 42.61Q103.20 41.04 98.78 41.04M98.78 44.56L96.00 44.56Q89.21 44.56 85.52 41.47Q81.84 38.38 81.84 33.20Q81.84 30.83 82.89 28.76Q83.94 26.68 85.90 25.11Q87.87 23.54 90.92 22.62Q93.97 21.70 97.71 21.70Q102.42 21.70 106.52 23.13Q110.62 24.56 113.35 27.12L111.94 28.17Q109.45 25.93 105.71 24.69Q101.98 23.46 97.71 23.46Q91.11 23.46 87.35 26.25Q83.59 29.03 83.59 33.20Q83.59 37.62 86.82 40.21Q90.04 42.80 96.00 42.80L98.68 42.80Q105.91 42.80 105.91 47.12Q105.91 49.07 103.70 50.33Q101.49 51.59 97.07 51.59Q93.97 51.59 91.31 50.87Q88.65 50.15 86.91 48.80L88.31 47.73Q91.36 49.83 97.07 49.83Q100.73 49.83 102.44 49.07Q104.15 48.32 104.15 47.12Q104.15 45.73 102.95 45.14Q101.76 44.56 98.78 44.56M98.78 37.52L96.00 37.52Q88.87 37.52 88.87 33.20Q88.87 31.25 91.08 29.99Q93.29 28.74 97.71 28.74Q100.81 28.74 103.47 29.46Q106.13 30.18 107.86 31.52L106.47 32.59Q103.42 30.49 97.71 30.49Q94.04 30.49 92.33 31.25Q90.63 32.01 90.63 33.20Q90.63 34.59 91.82 35.18Q93.02 35.77 96.00 35.77L98.78 35.77Q105.57 35.77 109.25 38.85Q112.94 41.94 112.94 47.12Q112.94 49.49 111.89 51.56Q110.84 53.64 108.87 55.21Q106.91 56.79 103.86 57.70Q100.81 58.62 97.07 58.62Q92.36 58.62 88.26 57.19Q84.16 55.76 81.42 53.20L82.84 52.15Q85.33 54.39 89.06 55.63Q92.80 56.86 97.07 56.86Q103.66 56.86 107.42 54.08Q111.18 51.29 111.18 47.12Q111.18 42.70 107.96 40.11Q104.74 37.52 98.78 37.52ZM127.32 22.61L129.08 22.61L129.08 57.76L127.32 57.76L127.32 22.61M123.80 22.61L125.56 22.61L125.56 57.76L123.80 57.76L123.80 22.61M120.29 22.61L122.05 22.61L122.05 57.76L120.29 57.76L120.29 22.61M116.77 22.61L118.53 22.61L118.53 57.76L116.77 57.76L116.77 22.61ZM165.58 22.61L167.33 22.61L156.27 45.90L156.27 57.76L154.52 57.76L154.52 45.90L165.58 22.61M162.06 22.61L163.82 22.61L152.76 45.90L152.76 57.76L151.00 57.76L151.00 45.90L162.06 22.61M158.54 22.61L160.30 22.61L149.24 45.90L149.24 57.76L147.49 57.76L147.49 45.90L158.54 22.61M155.03 22.61L156.79 22.61L145.73 45.90L145.73 57.76L143.97 57.76L143.97 45.90L132.18 22.61L133.94 22.61L144.82 44.12L155.03 22.61M135.72 22.61L137.48 22.61L146.19 39.18L145.31 41.11L135.72 22.61M139.23 22.61L141.02 22.61L147.95 35.33L147.05 37.26L139.23 22.61M142.80 22.61L144.56 22.61L149.71 31.49L148.83 33.42L142.80 22.61ZM182.64 57.76L180.88 57.76L180.88 17.33L182.64 17.33L182.64 57.76M179.13 57.76L177.37 57.76L177.37 17.33L179.13 17.33L179.13 57.76M175.61 57.76L173.85 57.76L173.85 17.33L175.61 17.33L175.61 57.76M172.09 57.76L170.34 57.76L170.34 17.33L172.09 17.33L172.09 57.76M195.48 37.55L205.81 17.33L207.76 17.33L197.44 37.55L207.76 57.76L205.81 57.76L195.48 37.55M191.55 37.55L201.88 17.33L203.83 17.33L193.51 37.55L203.83 57.76L201.88 57.76L191.55 37.55M187.62 37.55L197.95 17.33L199.90 17.33L189.58 37.55L199.90 57.76L197.95 57.76L187.62 37.55M183.67 37.55L194.02 17.33L195.97 17.33L185.62 37.55L195.97 57.76L194.02 57.76L183.67 37.55ZM240.23 43.02L241.99 39.70L241.99 57.76L240.23 57.76L240.23 43.02M243.75 36.28L245.51 32.96L245.51 57.76L243.75 57.76L243.75 36.28M247.27 29.64L249.02 26.29L249.02 57.76L247.27 57.76L247.27 29.64M235.47 42.19L234.47 40.36L246.58 17.33L248.56 17.33L235.47 42.19M233.45 38.35L232.42 36.50L242.58 17.33L244.58 17.33L233.45 38.35M221.68 39.89L223.44 43.21L223.44 57.76L221.68 57.76L221.68 39.89M218.16 33.20L219.92 36.52L219.92 57.76L218.16 57.76L218.16 33.20M214.65 26.51L216.41 29.86L216.41 57.76L214.65 57.76L214.65 26.51M228.86 47.22L226.88 47.22L212.89 20.68L212.89 57.76L211.13 57.76L211.13 17.33L213.11 17.33L228.86 47.22M232.84 47.22L230.83 47.22L215.11 17.33L217.11 17.33L232.84 47.22M250.78 20.68L236.79 47.22L234.79 47.22L219.09 17.33L221.07 17.33L235.82 45.36L250.54 17.33L252.54 17.33L252.54 57.76L250.78 57.76L250.78 20.68Z"/></g></g></svg>